# xmcd
#
# Track frame offsets: 
#        150
#        18363
#        31362
#        51324
#        64253
#        75212
#        94807
#        113871
#        126856
#        137937
#        153242
#        169447
#
# Disc length: 2412 seconds
#
# Revision: 0
# Processed by: cddbd v1.5.2PL0 Copyright (c) Steve Scherf et al.
# Submitted via: ExactAudioCopy v0.99pb4
#
DISCID=9e096a0c
DTITLE=Ricky Nye and The Paris Blues Band - Ricky Nye and The Paris Blues 
DTITLE=Band
DYEAR=2011
DGENRE=Blues
TTITLE0=Talk to Me Baby
TTITLE1=Love Crazy
TTITLE2=Cincinnati Stomp
TTITLE3=Must Have Been the Devil
TTITLE4=Shake Shake Baby
TTITLE5=Lifes a One-Way Ticket
TTITLE6=You Must Be Foolin'
TTITLE7=Frankie and Johnny
TTITLE8=One Monkey Won't Stop the Show
TTITLE9=Wish I Knew
TTITLE10=One-Room Country Shack
TTITLE11=Ought to See My Baby
EXTD=
EXTT0=
EXTT1=
EXTT2=
EXTT3=
EXTT4=
EXTT5=
EXTT6=
EXTT7=
EXTT8=
EXTT9=
EXTT10=
EXTT11=
PLAYORDER=
